Coordinates
nRows=234
nColumns=2
inDegrees=yes
endheader
time	ankle_angle_r	
3.42641	 -5.346090	
3.45968	 -5.258962	
3.49294	 -5.315125	
3.52621	 -5.325317	
3.55948	 -5.289541	
3.59274	 -5.290253	
3.62601	 -5.315511	
3.65927	 -5.283701	
3.69254	 -5.304413	
3.72581	 -5.325317	
3.75907	 -5.279541	
3.79234	 -5.315995	
3.8256	 -5.337383	
3.85887	 -5.288671	
3.89214	 -5.298219	
3.9254	 -5.310059	
3.95867	 -5.273122	
3.99194	 -5.270798	
4.0252	 -5.294800	
4.05847	 -5.227055	
4.09173	 -5.294800	
4.125	 -5.271185	
4.15827	 -5.272542	
4.19153	 -5.249023	
4.2248	 -5.218506	
4.25806	 -5.241054	
4.29133	 -5.264769	
4.3246	 -5.241540	
4.35786	 -5.157471	
4.39113	 -5.210923	
4.4244	 -5.203534	
4.45766	 -5.173210	
4.49093	 -5.241057	
4.52419	 -5.287604	
4.55746	 -5.271381	
4.59073	 -5.233765	
4.62399	 -5.303153	
4.65726	 -5.287991	
4.69052	 -5.323483	
4.72379	 -5.310059	
4.75706	 -5.273022	
4.79032	 -5.279541	
4.82359	 -5.288474	
4.85685	 -5.264282	
4.89012	 -5.294800	
4.92339	 -5.273506	
4.95665	 -5.258343	
4.98992	 -5.319475	
5.02319	 -5.273796	
5.05645	 -5.269931	
5.08972	 -5.310059	
5.12298	 -5.264282	
5.15625	 -5.269641	
5.18952	 -5.289538	
5.22278	 -5.264282	
5.25605	 -5.254145	
5.28931	 -5.305087	
5.32258	 -5.259407	
5.35585	 -5.274762	
5.38911	 -5.284223	
5.42238	 -5.249023	
5.45565	 -5.275053	
5.48891	 -5.259891	
5.52218	 -5.244728	
5.55544	 -5.253222	
5.58871	 -5.272486	
5.62198	 -5.245018	
5.65524	 -5.241207	
5.68851	 -5.233765	
5.72177	 -5.225936	
5.75504	 -5.233765	
5.78831	 -5.260760	
5.82157	 -5.164321	
5.85484	 -5.245695	
5.8881	 -5.282773	
5.92137	 -5.221641	
5.95464	 -5.200209	
5.9879	 -5.249023	
6.02117	 -5.236609	
6.05444	 -5.213009	
6.0877	 -5.223809	
6.12097	 -5.236320	
6.15423	 -5.170271	
6.1875	 -5.172729	
6.22077	 -5.172729	
6.25403	 -5.159639	
6.2873	 -5.170658	
6.32056	 -5.220480	
6.35383	 -5.189867	
6.3871	 -5.201466	
6.42036	 -5.218506	
6.45363	 -5.143800	
6.4869	 -5.142212	
6.52016	 -5.187988	
6.55343	 -5.171432	
6.58669	 -5.187988	
6.61996	 -5.157471	
6.65323	 -5.157471	
6.68649	 -5.202336	
6.71976	 -5.187174	
6.75302	 -5.203247	
6.78629	 -5.233143	
6.81956	 -5.172729	
6.85282	 -5.263855	
6.88609	 -5.263951	
6.91935	 -5.264282	
6.95262	 -5.248886	
6.98589	 -5.294800	
7.01915	 -5.264171	
7.05242	 -5.233765	
7.08569	 -5.294302	
7.11895	 -5.264282	
7.15222	 -5.218948	
7.18548	 -5.279541	
7.21875	 -5.294164	
7.25202	 -5.249756	
7.28528	 -5.293141	
7.31855	 -5.277689	
7.35181	 -5.234787	
7.38508	 -5.293681	
7.41835	 -5.234981	
7.45161	 -5.292175	
7.48488	 -5.264282	
7.51815	 -5.250529	
7.55141	 -5.276336	
7.58468	 -5.291401	
7.61794	 -5.250820	
7.65121	 -5.264282	
7.68448	 -5.281530	
7.71774	 -5.258024	
7.75101	 -5.279541	
7.78427	 -5.305500	
7.81754	 -5.277165	
7.85081	 -5.292327	
7.88407	 -5.264282	
7.91734	 -5.249023	
7.9506	 -5.236527	
7.98387	 -5.282401	
8.01714	 -5.203247	
8.0504	 -5.191041	
8.08367	 -5.230615	
8.11694	 -5.203247	
8.1502	 -5.282884	
8.18347	 -5.230325	
8.21673	 -5.245487	
8.25	 -5.199614	
8.28327	 -5.321588	
8.31653	 -5.187988	
8.3498	 -5.321394	
8.38306	 -5.286760	
8.41633	 -5.267191	
8.4496	 -5.299013	
8.48286	 -5.321008	
8.51613	 -5.283947	
8.5494	 -5.305555	
8.58266	 -5.305459	
8.61593	 -5.268979	
8.64919	 -5.320524	
8.68246	 -5.305758	
8.71573	 -5.294800	
8.74899	 -5.315151	
8.78226	 -5.330497	
8.81552	 -5.279541	
8.84879	 -5.319944	
8.88206	 -5.304588	
8.91532	 -5.254590	
8.94859	 -5.315722	
8.98185	 -5.310059	
9.01512	 -5.304202	
9.04839	 -5.310059	
9.08165	 -5.316109	
9.11492	 -5.285688	
9.14819	 -5.310059	
9.18145	 -5.334236	
9.21472	 -5.279541	
9.24798	 -5.312250	
9.28125	 -5.333946	
9.31452	 -5.286268	
9.34778	 -5.301623	
9.38105	 -5.272621	
9.41431	 -5.240782	
9.44758	 -5.271396	
9.48085	 -5.302010	
9.51411	 -5.264282	
9.54738	 -5.301753	
9.58065	 -5.264282	
9.61391	 -5.210909	
9.64718	 -5.195553	
9.68044	 -5.203569	
9.71371	 -5.195360	
9.74698	 -5.172729	
9.78024	 -5.217604	
9.81351	 -5.142212	
9.84677	 -5.240749	
9.88004	 -5.218506	
9.91331	 -5.157471	
9.94657	 -5.140343	
9.97984	 -5.098498	
10.0131	 -5.096436	
10.0464	 -5.083626	
10.0796	 -5.099078	
10.1129	 -5.096436	
10.1462	 -5.175759	
10.1794	 -5.132971	
10.2127	 -5.093019	
10.246	 -5.249023	
10.2792	 -5.161273	
10.3125	 -5.212874	
10.3458	 -5.207437	
10.379	 -5.187988	
10.4123	 -5.192565	
10.4456	 -5.213262	
10.4788	 -5.121805	
10.5121	 -5.126953	
10.5454	 -5.172729	
10.5786	 -5.147755	
10.6119	 -5.096436	
10.6452	 -5.172729	
10.6784	 -5.111694	
10.7117	 -5.153000	
10.745	 -5.177104	
10.7782	 -5.177007	
10.8115	 -5.214325	
10.8448	 -5.180898	
10.878	 -5.161458	
10.9113	 -5.157471	
10.9446	 -5.218506	
10.9778	 -5.089041	
11.0111	 -5.187988	
11.0444	 -5.194996	
11.0776	 -5.167693	
11.1109	 -5.191299	
11.1442	 -5.215292	
11.1774	 -5.172729	
